<?xml version="1.0" encoding="UTF-8" standalone="no"?>
<!-- Created with Inkscape (http://www.inkscape.org/) -->

<svg
   width="25.4mm"
   height="128.5mm"
   viewBox="0 0 25.399998 128.5"
   version="1.1"
   id="svg5"
   inkscape:version="1.2.2 (b0a84865, 2022-12-01)"
   sodipodi:docname="Breaker.svg"
   xml:space="preserve"
   xmlns:inkscape="http://www.inkscape.org/namespaces/inkscape"
   xmlns:sodipodi="http://sodipodi.sourceforge.net/DTD/sodipodi-0.dtd"
   xmlns="http://www.w3.org/2000/svg"
   xmlns:svg="http://www.w3.org/2000/svg"><sodipodi:namedview
     id="namedview7"
     pagecolor="#ffffff"
     bordercolor="#000000"
     borderopacity="0.25"
     inkscape:showpageshadow="2"
     inkscape:pageopacity="0.0"
     inkscape:pagecheckerboard="false"
     inkscape:deskcolor="#d1d1d1"
     inkscape:document-units="mm"
     showgrid="false"
     inkscape:zoom="1.829812"
     inkscape:cx="-4.0987817"
     inkscape:cy="350.03596"
     inkscape:window-width="1390"
     inkscape:window-height="847"
     inkscape:window-x="50"
     inkscape:window-y="25"
     inkscape:window-maximized="0"
     inkscape:current-layer="layer1" /><defs
     id="defs2"><rect
       x="11.593105"
       y="80.378863"
       width="35.552189"
       height="13.138853"
       id="rect408" /><rect
       x="5.4650421"
       y="18.581144"
       width="50.278389"
       height="37.162289"
       id="rect514" /></defs><g
     inkscape:label="panel"
     inkscape:groupmode="layer"
     id="layer1"><rect
       style="fill:#cccccc;stroke-width:0.341575"
       id="rect215"
       width="25.4"
       height="128.5"
       x="0"
       y="0"
       inkscape:label="background" /><rect
       style="fill:#1a1a1a;stroke-width:0.264583"
       id="rect230"
       width="10.26631"
       height="10.410906"
       x="12.919721"
       y="108" /><rect
       style="fill:#1a1a1a;stroke-width:0.264583"
       id="rect288"
       width="10.26631"
       height="10.410906"
       x="11.127336"
       y="38.794548" /><rect
       style="fill:#1a1a1a;stroke-width:0.264583"
       id="rect290"
       width="10.26631"
       height="10.410906"
       x="2.213969"
       y="108" /><g
       aria-label="Breaker"
       id="text352"
       style="font-size:3.175px;stroke-width:0.264583"
       inkscape:label="module name"><path
         d="m 8.3777831,12.377294 q 0,0.172082 -0.065112,0.303857 -0.065112,0.131775 -0.1751831,0.217041 -0.1302246,0.10232 -0.2868042,0.145728 -0.1550293,0.04341 -0.3953247,0.04341 H 6.6368041 v -2.308386 h 0.6836792 q 0.2526977,0 0.3782715,0.0186 0.1255737,0.0186 0.2402954,0.07752 0.127124,0.06666 0.1844848,0.172082 0.057361,0.10387 0.057361,0.249598 0,0.164331 -0.083716,0.280603 -0.083716,0.114721 -0.2232422,0.184484 v 0.0124 q 0.2340942,0.04806 0.3689697,0.206189 0.1348755,0.156579 0.1348755,0.396875 z M 7.8615355,11.337047 q 0,-0.08372 -0.027905,-0.141076 -0.027905,-0.05736 -0.089917,-0.09302 -0.072864,-0.04186 -0.1767334,-0.05116 -0.1038697,-0.01085 -0.2573487,-0.01085 H 6.9437621 v 0.666626 h 0.396875 q 0.1441772,0 0.2294434,-0.01395 0.085266,-0.0155 0.1581298,-0.06201 0.072864,-0.04651 0.1023194,-0.119373 0.031006,-0.07441 0.031006,-0.175183 z m 0.1968872,1.052649 q 0,-0.139526 -0.041858,-0.221692 -0.041858,-0.08216 -0.1519287,-0.139526 -0.074414,-0.03876 -0.1813843,-0.04961 -0.1054199,-0.0124 -0.2573486,-0.0124 H 6.9437621 v 0.858862 h 0.4061768 q 0.201538,0 0.3302124,-0.02015 0.1286743,-0.0217 0.2108398,-0.07752 0.086816,-0.06046 0.127124,-0.137976 0.040308,-0.07752 0.040308,-0.199988 z"
         id="path192" /><path
         d="m 9.8707151,11.673461 h -0.015503 q -0.065112,-0.0155 -0.127124,-0.0217 -0.060461,-0.0078 -0.1441772,-0.0078 -0.1348755,0 -0.2604492,0.06046 -0.1255738,0.05891 -0.2418457,0.153479 v 1.229382 H 8.7901609 V 11.355651 H 9.081616 v 0.255798 q 0.1736328,-0.139526 0.3054077,-0.196887 0.1333252,-0.05891 0.2713012,-0.05891 0.075964,0 0.1100708,0.0047 0.034107,0.0031 0.1023194,0.01395 z"
         id="path194" /><path
         d="M 11.594641,12.25172 H 10.31875 q 0,0.15968 0.04806,0.279053 0.04806,0.117822 0.131775,0.193786 0.08061,0.07441 0.190686,0.111621 0.111621,0.03721 0.244946,0.03721 0.176733,0 0.355017,-0.06976 0.179834,-0.07131 0.255798,-0.139526 h 0.0155 v 0.31781 q -0.147278,0.06201 -0.300757,0.10387 -0.153479,0.04186 -0.322461,0.04186 -0.430981,0 -0.672827,-0.232544 -0.241845,-0.234095 -0.241845,-0.663526 0,-0.42478 0.230993,-0.674377 0.232544,-0.249597 0.610816,-0.249597 0.350366,0 0.539502,0.204638 0.190686,0.204639 0.190686,0.58136 z m -0.283704,-0.223242 q -0.0015,-0.229443 -0.116272,-0.355017 -0.113171,-0.125574 -0.345715,-0.125574 -0.234094,0 -0.373621,0.137976 -0.137976,0.137976 -0.156579,0.342615 z"
         id="path196" /><path
         d="m 13.382129,13.087328 h -0.289905 v -0.184485 q -0.03876,0.02635 -0.10542,0.07441 -0.06511,0.04651 -0.127124,0.07441 -0.07286,0.03566 -0.167432,0.05891 -0.09457,0.0248 -0.221692,0.0248 -0.234094,0 -0.396875,-0.155029 -0.162781,-0.15503 -0.162781,-0.395325 0,-0.196887 0.08372,-0.31781 0.08527,-0.122473 0.241846,-0.192236 0.15813,-0.06976 0.379822,-0.09457 0.221692,-0.0248 0.47594,-0.03721 v -0.04496 q 0,-0.09922 -0.03566,-0.164331 -0.03411,-0.06511 -0.09922,-0.102319 -0.06201,-0.03566 -0.148828,-0.04806 -0.08682,-0.0124 -0.181384,-0.0124 -0.114722,0 -0.255799,0.03101 -0.141076,0.02946 -0.291455,0.08682 h -0.0155 v -0.296106 q 0.08527,-0.02326 0.246497,-0.05116 0.161231,-0.0279 0.31781,-0.0279 0.182935,0 0.31781,0.03101 0.136426,0.02946 0.235645,0.102319 0.09767,0.07131 0.148828,0.184485 0.05116,0.113171 0.05116,0.280603 z m -0.289905,-0.426331 v -0.482141 q -0.133325,0.0078 -0.31471,0.02326 -0.179834,0.0155 -0.285254,0.04496 -0.125573,0.03566 -0.203088,0.111621 -0.07752,0.07441 -0.07752,0.206189 0,0.148828 0.08992,0.224793 0.08992,0.07441 0.274402,0.07441 0.153479,0 0.280603,-0.05891 0.127124,-0.06046 0.235645,-0.144178 z"
         id="path198" /><path
         d="m 15.515332,13.087328 h -0.384473 l -0.694531,-0.758093 -0.189136,0.179834 v 0.578259 h -0.291455 v -2.412256 h 0.291455 v 1.547192 l 0.841809,-0.866613 h 0.367419 l -0.804602,0.799951 z"
         id="path200" /><path
         d="m 17.240808,12.25172 h -1.275891 q 0,0.15968 0.04806,0.279053 0.04806,0.117822 0.131775,0.193786 0.08062,0.07441 0.190686,0.111621 0.111621,0.03721 0.244946,0.03721 0.176734,0 0.355017,-0.06976 0.179834,-0.07131 0.255799,-0.139526 h 0.0155 v 0.31781 q -0.147278,0.06201 -0.300757,0.10387 -0.153479,0.04186 -0.322461,0.04186 -0.430982,0 -0.672827,-0.232544 -0.241846,-0.234095 -0.241846,-0.663526 0,-0.42478 0.230994,-0.674377 0.232544,-0.249597 0.610815,-0.249597 0.350366,0 0.539502,0.204638 0.190686,0.204639 0.190686,0.58136 z m -0.283704,-0.223242 q -0.0016,-0.229443 -0.116272,-0.355017 -0.113171,-0.125574 -0.345715,-0.125574 -0.234094,0 -0.373621,0.137976 -0.137976,0.137976 -0.156579,0.342615 z"
         id="path202" /><path
         d="m 18.763196,11.673461 h -0.0155 q -0.06511,-0.0155 -0.127124,-0.0217 -0.06046,-0.0078 -0.144178,-0.0078 -0.134875,0 -0.260449,0.06046 -0.125573,0.05891 -0.241845,0.153479 v 1.229382 h -0.291455 v -1.731677 h 0.291455 v 0.255798 q 0.173632,-0.139526 0.305407,-0.196887 0.133325,-0.05891 0.271302,-0.05891 0.07596,0 0.11007,0.0047 0.03411,0.0031 0.10232,0.01395 z"
         id="path204" /></g><g
       aria-label="L"
       id="text530"
       style="font-size:3.175px;stroke-width:0.264583"
       inkscape:label="L in label"><path
         d="M 8.2168037,23.308386 H 6.7564278 V 21 h 0.306958 v 2.035534 h 1.1534179 z"
         id="path207" /></g><g
       aria-label="R"
       id="text534"
       style="font-size:3.175px;stroke-width:0.264583"
       inkscape:label="R in label"><path
         d="M 18.643571,23.308386 H 18.245146 L 17.4731,22.390612 h -0.432532 v 0.917774 H 16.73361 V 21 h 0.646472 q 0.20929,0 0.348816,0.02791 0.139527,0.02635 0.251148,0.09612 0.125573,0.07906 0.195337,0.199988 0.07131,0.119372 0.07131,0.303857 0,0.249597 -0.125574,0.418579 -0.125573,0.167432 -0.345715,0.252698 z m -0.717786,-1.658814 q 0,-0.09922 -0.03566,-0.175183 -0.03411,-0.07751 -0.114722,-0.130224 -0.06666,-0.04496 -0.15813,-0.06201 -0.09147,-0.0186 -0.215491,-0.0186 h -0.361218 v 0.871265 h 0.310059 q 0.145727,0 0.254248,-0.0248 0.10852,-0.02636 0.184485,-0.09612 0.06976,-0.06511 0.102319,-0.148828 0.03411,-0.08527 0.03411,-0.215491 z"
         id="path210" /></g><g
       aria-label="tripped"
       id="text538"
       style="font-size:3.175px;stroke-width:0.264583"
       inkscape:label="tripped"><path
         d="m 8.5603652,37.579433 q -0.082166,0.0217 -0.179834,0.03566 -0.096118,0.01395 -0.1720825,0.01395 -0.2651001,0 -0.4030762,-0.142627 Q 7.6673964,37.343789 7.6673964,37.029079 V 36.108205 H 7.4705092 v -0.244946 h 0.1968872 v -0.497644 h 0.2914551 v 0.497644 h 0.6015137 v 0.244946 H 7.9588515 v 0.7891 q 0,0.136425 0.0062,0.21394 0.0062,0.07596 0.043408,0.142627 0.034106,0.06201 0.093018,0.09147 0.060461,0.0279 0.1829345,0.0279 0.071313,0 0.1488282,-0.02015 0.077515,-0.0217 0.1116211,-0.03566 h 0.015503 z"
         id="path213" /><path
         d="m 9.9928358,36.181069 h -0.015503 q -0.065112,-0.0155 -0.127124,-0.0217 -0.060462,-0.0078 -0.1441773,-0.0078 -0.1348755,0 -0.2604492,0.06046 -0.1255737,0.05891 -0.2418457,0.153479 v 1.229382 H 8.9122816 v -1.731677 h 0.2914551 v 0.255798 q 0.1736328,-0.139526 0.3054077,-0.196887 0.1333252,-0.05891 0.2713013,-0.05891 0.075964,0 0.1100708,0.0047 0.034106,0.0031 0.1023193,0.01395 z"
         id="path215" /><path
         d="m 10.580397,35.573354 h -0.328662 v -0.302307 h 0.328662 z m -0.0186,2.021582 h -0.291455 v -1.731677 h 0.291455 z"
         id="path217" /><path
         d="m 12.66244,36.708169 q 0,0.21084 -0.06046,0.386023 -0.06046,0.173633 -0.170532,0.294555 -0.10232,0.114722 -0.241846,0.178284 -0.137976,0.06201 -0.293005,0.06201 -0.134876,0 -0.244947,-0.02946 -0.10852,-0.02945 -0.221692,-0.09147 v 0.725537 h -0.291455 v -2.370398 h 0.291455 v 0.181384 q 0.116272,-0.09767 0.26045,-0.16278 0.145727,-0.06666 0.310058,-0.06666 0.313159,0 0.486792,0.237195 0.175183,0.235644 0.175183,0.655774 z m -0.300757,0.0078 q 0,-0.313159 -0.10697,-0.468188 -0.10697,-0.155029 -0.328662,-0.155029 -0.125574,0 -0.252698,0.05426 -0.127124,0.05426 -0.243396,0.142627 v 0.981335 q 0.124024,0.05581 0.212391,0.07596 0.08992,0.02015 0.203088,0.02015 0.243396,0 0.379822,-0.164331 0.136425,-0.164331 0.136425,-0.486792 z"
         id="path219" /><path
         d="m 14.640614,36.708169 q 0,0.21084 -0.06046,0.386023 -0.06046,0.173633 -0.170532,0.294555 -0.10232,0.114722 -0.241846,0.178284 -0.137976,0.06201 -0.293005,0.06201 -0.134876,0 -0.244947,-0.02946 -0.10852,-0.02945 -0.221692,-0.09147 v 0.725537 h -0.291455 v -2.370398 h 0.291455 v 0.181384 q 0.116272,-0.09767 0.26045,-0.16278 0.145727,-0.06666 0.310058,-0.06666 0.313159,0 0.486792,0.237195 0.175183,0.235644 0.175183,0.655774 z m -0.300757,0.0078 q 0,-0.313159 -0.10697,-0.468188 -0.10697,-0.155029 -0.328662,-0.155029 -0.125574,0 -0.252698,0.05426 -0.127124,0.05426 -0.243396,0.142627 v 0.981335 q 0.124024,0.05581 0.212391,0.07596 0.08992,0.02015 0.203088,0.02015 0.243396,0 0.379822,-0.164331 0.136425,-0.164331 0.136425,-0.486792 z"
         id="path221" /><path
         d="m 16.544374,36.759328 h -1.275891 q 0,0.159681 0.04806,0.279053 0.04806,0.117822 0.131775,0.193787 0.08061,0.07441 0.190686,0.111621 0.111621,0.03721 0.244946,0.03721 0.176734,0 0.355017,-0.06976 0.179834,-0.07131 0.255799,-0.139527 h 0.0155 v 0.31781 q -0.147278,0.06201 -0.300757,0.10387 -0.153479,0.04186 -0.322461,0.04186 -0.430982,0 -0.672827,-0.232544 -0.241846,-0.234094 -0.241846,-0.663525 0,-0.424781 0.230994,-0.674378 0.232544,-0.249597 0.610815,-0.249597 0.350366,0 0.539502,0.204639 0.190686,0.204638 0.190686,0.58136 z M 16.26067,36.536086 q -0.0016,-0.229443 -0.116272,-0.355017 -0.113171,-0.125574 -0.345715,-0.125574 -0.234094,0 -0.373621,0.137977 -0.137976,0.137976 -0.156579,0.342614 z"
         id="path223" /><path
         d="m 18.390773,37.594936 h -0.291455 v -0.181384 q -0.125574,0.108521 -0.262,0.168982 -0.136425,0.06046 -0.296106,0.06046 -0.310058,0 -0.492993,-0.238745 -0.181384,-0.238745 -0.181384,-0.661975 0,-0.220141 0.06201,-0.392224 0.06356,-0.172082 0.170532,-0.293005 0.10542,-0.117822 0.244946,-0.179834 0.141077,-0.06201 0.291455,-0.06201 0.136426,0 0.241846,0.02946 0.10542,0.0279 0.221692,0.08837 v -0.750341 h 0.291455 z m -0.291455,-0.42633 v -0.993738 q -0.117822,-0.05271 -0.21084,-0.07286 -0.09302,-0.02015 -0.203088,-0.02015 -0.244947,0 -0.381372,0.170533 -0.136426,0.170532 -0.136426,0.483691 0,0.308508 0.10542,0.469739 0.10542,0.15968 0.337964,0.15968 0.124023,0 0.251147,-0.05426 0.127124,-0.05581 0.237195,-0.142627 z"
         id="path225" /></g><g
       aria-label="reset"
       id="text592"
       style="font-size:3.175px;stroke-width:0.264583"
       inkscape:label="reset"><path
         d="m 9.9350521,55.41232 h -0.015503 q -0.065112,-0.0155 -0.1271241,-0.0217 -0.060461,-0.0078 -0.1441772,-0.0078 -0.1348755,0 -0.2604492,0.06046 -0.1255738,0.05891 -0.2418457,0.153479 v 1.229382 H 8.8544979 V 55.09451 H 9.145953 v 0.255798 q 0.1736328,-0.139526 0.3054077,-0.196887 0.1333252,-0.05891 0.2713013,-0.05891 0.075964,0 0.1100708,0.0047 0.034106,0.0031 0.1023193,0.01395 z"
         id="path228" /><path
         d="m 11.658978,55.990579 h -1.275891 q 0,0.15968 0.04806,0.279053 0.04806,0.117822 0.131775,0.193787 0.08061,0.07441 0.190686,0.111621 0.111621,0.03721 0.244946,0.03721 0.176733,0 0.355017,-0.06976 0.179834,-0.07131 0.255798,-0.139527 h 0.0155 v 0.31781 q -0.147277,0.06201 -0.300756,0.10387 -0.153479,0.04186 -0.322461,0.04186 -0.430982,0 -0.672828,-0.232544 -0.241845,-0.234094 -0.241845,-0.663526 0,-0.42478 0.230993,-0.674377 0.232544,-0.249597 0.610816,-0.249597 0.350366,0 0.539502,0.204639 0.190686,0.204638 0.190686,0.581359 z m -0.283704,-0.223242 q -0.0015,-0.229443 -0.116272,-0.355017 -0.113171,-0.125574 -0.345715,-0.125574 -0.234094,0 -0.373621,0.137976 -0.137976,0.137976 -0.156579,0.342615 z"
         id="path230" /><path
         d="m 13.337945,56.326993 q 0,0.237195 -0.196887,0.389123 -0.195337,0.151929 -0.534851,0.151929 -0.192236,0 -0.353467,-0.04496 -0.15968,-0.04651 -0.2682,-0.100769 v -0.327112 h 0.0155 q 0.137977,0.103869 0.306958,0.165881 0.168982,0.06046 0.324012,0.06046 0.192236,0 0.300756,-0.06201 0.108521,-0.06201 0.108521,-0.195337 0,-0.102319 -0.05891,-0.155029 -0.05891,-0.05271 -0.226343,-0.08992 -0.06201,-0.01395 -0.162781,-0.03256 -0.09922,-0.0186 -0.181384,-0.04031 -0.227893,-0.06046 -0.324011,-0.176734 -0.09457,-0.117822 -0.09457,-0.288354 0,-0.10697 0.04341,-0.201538 0.04496,-0.09457 0.134876,-0.168982 0.08682,-0.07286 0.220141,-0.114722 0.134876,-0.04341 0.300757,-0.04341 0.155029,0 0.313159,0.03876 0.15968,0.03721 0.2651,0.09147 v 0.311608 h -0.0155 q -0.111621,-0.08216 -0.271301,-0.137976 -0.15968,-0.05736 -0.313159,-0.05736 -0.15968,0 -0.269751,0.06201 -0.110071,0.06046 -0.110071,0.181385 0,0.10697 0.06666,0.16123 0.06511,0.05426 0.21084,0.08837 0.08062,0.0186 0.179834,0.03721 0.100769,0.0186 0.167431,0.03411 0.203089,0.04651 0.313159,0.15968 0.110071,0.114722 0.110071,0.303858 z"
         id="path232" /><path
         d="m 15.204498,55.990579 h -1.275891 q 0,0.15968 0.04806,0.279053 0.04806,0.117822 0.131775,0.193787 0.08062,0.07441 0.190686,0.111621 0.111621,0.03721 0.244946,0.03721 0.176733,0 0.355017,-0.06976 0.179834,-0.07131 0.255798,-0.139527 h 0.0155 v 0.31781 q -0.147277,0.06201 -0.300756,0.10387 -0.153479,0.04186 -0.322461,0.04186 -0.430982,0 -0.672828,-0.232544 -0.241845,-0.234094 -0.241845,-0.663526 0,-0.42478 0.230993,-0.674377 0.232544,-0.249597 0.610816,-0.249597 0.350366,0 0.539502,0.204639 0.190686,0.204638 0.190686,0.581359 z m -0.283704,-0.223242 q -0.0015,-0.229443 -0.116272,-0.355017 -0.113171,-0.125574 -0.345715,-0.125574 -0.234094,0 -0.373621,0.137976 -0.137976,0.137976 -0.156579,0.342615 z"
         id="path234" /><path
         d="m 16.545501,56.810684 q -0.08216,0.0217 -0.179834,0.03566 -0.09612,0.01395 -0.172082,0.01395 -0.2651,0 -0.403076,-0.142627 Q 15.652532,56.57504 15.652532,56.26033 V 55.339456 H 15.455645 V 55.09451 h 0.196887 v -0.497644 h 0.291456 v 0.497644 h 0.601513 v 0.244946 h -0.601513 v 0.789099 q 0,0.136426 0.0062,0.213941 0.0062,0.07596 0.04341,0.142627 0.03411,0.06201 0.09302,0.09147 0.06046,0.0279 0.182934,0.0279 0.07131,0 0.148828,-0.02015 0.07752,-0.0217 0.111621,-0.03566 h 0.0155 z"
         id="path236" /></g><g
       aria-label="L"
       id="text596"
       style="font-size:3.175px;stroke-width:0.264583"
       inkscape:label="L out label"><path
         d="M 8.5783269,103.30839 H 7.1179509 V 101 h 0.306958 v 2.03554 h 1.153418 z"
         id="path239" /></g><g
       aria-label="R"
       id="text600"
       style="font-size:3.175px;stroke-width:0.264583"
       inkscape:label="R out label"><path
         d="m 18.282048,103.30839 h -0.398425 l -0.772046,-0.91778 h -0.432532 v 0.91778 H 16.372087 V 101 h 0.646473 q 0.209289,0 0.348816,0.0279 0.139526,0.0263 0.251147,0.0961 0.125574,0.0791 0.195337,0.19999 0.07131,0.11938 0.07131,0.30386 0,0.2496 -0.125573,0.41858 -0.125574,0.16743 -0.345716,0.2527 z m -0.717785,-1.65882 q 0,-0.0992 -0.03566,-0.17518 -0.03411,-0.0775 -0.114722,-0.13022 -0.06666,-0.045 -0.15813,-0.062 -0.09147,-0.0186 -0.21549,-0.0186 h -0.361219 v 0.87127 h 0.310059 q 0.145728,0 0.254248,-0.0248 0.108521,-0.0264 0.184485,-0.0961 0.06976,-0.0651 0.102319,-0.14882 0.03411,-0.0853 0.03411,-0.2155 z"
         id="path242" /></g></g><g
     inkscape:groupmode="layer"
     id="layer2"
     inkscape:label="components"
     style="display:none"><circle
       style="fill:#00ff00;stroke-width:0.267857"
       id="path430"
       cx="7.7156248"
       cy="28.665409"
       r="3"
       inkscape:label="left" /><circle
       style="fill:#0000ff;stroke-width:0.264583"
       id="path432"
       cx="17.936995"
       cy="113.25927"
       r="3"
       inkscape:label="right" /><circle
       style="fill:#0000ff;stroke-width:0.264583"
       id="circle204"
       cx="16.26049"
       cy="44"
       r="3"
       inkscape:label="tripped gate" /><circle
       style="fill:#00ff00;stroke-width:0.267857"
       id="circle206"
       cx="12.7"
       cy="62.890564"
       r="3"
       inkscape:label="reset" /><circle
       style="fill:#0000ff;stroke-width:0.264583"
       id="circle210"
       cx="7.3035402"
       cy="113.13326"
       r="3"
       inkscape:label="left" /><circle
       style="fill:#00ff00;stroke-width:0.267857"
       id="circle186"
       cx="17.684376"
       cy="28.665409"
       r="3"
       inkscape:label="right" /><circle
       style="fill:#ff00ff;stroke-width:0.264583"
       id="path296"
       cx="7.0063534"
       cy="44"
       r="3"
       inkscape:label="tripped" /></g></svg>
