<?xml version="1.0" encoding="UTF-8" standalone="no"?>
<!-- Created with Inkscape (http://www.inkscape.org/) -->

<svg
   width="15.24mm"
   height="128.5mm"
   viewBox="0 0 15.239999 128.5"
   version="1.1"
   id="svg5"
   inkscape:version="1.2.2 (b0a84865, 2022-12-01)"
   sodipodi:docname="MagSign.svg"
   xml:space="preserve"
   xmlns:inkscape="http://www.inkscape.org/namespaces/inkscape"
   xmlns:sodipodi="http://sodipodi.sourceforge.net/DTD/sodipodi-0.dtd"
   xmlns="http://www.w3.org/2000/svg"
   xmlns:svg="http://www.w3.org/2000/svg"><sodipodi:namedview
     id="namedview7"
     pagecolor="#ffffff"
     bordercolor="#000000"
     borderopacity="0.25"
     inkscape:showpageshadow="2"
     inkscape:pageopacity="0.0"
     inkscape:pagecheckerboard="false"
     inkscape:deskcolor="#d1d1d1"
     inkscape:document-units="mm"
     showgrid="false"
     inkscape:zoom="1.2938725"
     inkscape:cx="-58.351963"
     inkscape:cy="248.47889"
     inkscape:window-width="1390"
     inkscape:window-height="847"
     inkscape:window-x="2122"
     inkscape:window-y="321"
     inkscape:window-maximized="0"
     inkscape:current-layer="layer2" /><defs
     id="defs2"><rect
       x="5.4650423"
       y="18.581144"
       width="50.278389"
       height="37.162288"
       id="rect514" /></defs><g
     inkscape:label="panel"
     inkscape:groupmode="layer"
     id="layer1"><rect
       style="fill:#cccccc;stroke-width:0.264583"
       id="rect215"
       width="15.24"
       height="128.5"
       x="-6.8484404e-08"
       y="2.9483116e-08"
       inkscape:label="background" /><rect
       style="fill:#1a1a1a;stroke-width:0.306654"
       id="rect372"
       width="15.24"
       height="1.8797468"
       x="0"
       y="66.495911"
       inkscape:label="separator" /><g
       aria-label="mag &amp; sign"
       transform="matrix(0.26458333,0,0,0.26458333,1.055654,1.2290652)"
       id="text512"
       style="white-space:pre;shape-inside:url(#rect514);display:inline;fill:#1a1a1a"
       inkscape:label="modulename"><path
         d="m 16.099609,29.529995 h -1.101562 v -3.726562 q 0,-0.421875 -0.04102,-0.814454 -0.03516,-0.392578 -0.158203,-0.626953 -0.134765,-0.251953 -0.386719,-0.380859 -0.251953,-0.128906 -0.726562,-0.128906 -0.462891,0 -0.925781,0.234375 -0.462891,0.228515 -0.925782,0.585937 0.01758,0.134766 0.0293,0.316406 0.01172,0.175782 0.01172,0.351563 v 4.189453 h -1.101562 v -3.726562 q 0,-0.433594 -0.04102,-0.820313 -0.03516,-0.392578 -0.158203,-0.626953 -0.134766,-0.251953 -0.386719,-0.375 -0.2519531,-0.128906 -0.7265625,-0.128906 -0.4511719,0 -0.9082031,0.222656 -0.4511719,0.222656 -0.9023438,0.568359 v 4.886719 H 6.5488281 v -6.544922 h 1.1015625 v 0.726563 q 0.515625,-0.427735 1.0253907,-0.667969 0.515625,-0.240234 1.0957031,-0.240234 0.6679686,0 1.1308596,0.28125 0.46875,0.28125 0.697265,0.779296 0.667969,-0.5625 1.21875,-0.808593 0.550782,-0.251953 1.177735,-0.251953 1.078125,0 1.58789,0.65625 0.515625,0.65039 0.515625,1.822265 z"
         id="path198" /><path
         d="m 23.306641,29.529995 h -1.095704 v -0.697266 q -0.146484,0.09961 -0.398437,0.28125 -0.246094,0.175782 -0.480469,0.28125 -0.27539,0.134766 -0.632812,0.222657 -0.357422,0.09375 -0.837891,0.09375 -0.884766,0 -1.5,-0.585938 -0.615234,-0.585937 -0.615234,-1.49414 0,-0.744141 0.316406,-1.201172 0.322266,-0.462891 0.914062,-0.726563 0.597657,-0.263672 1.435547,-0.357422 0.837891,-0.09375 1.798828,-0.140625 v -0.169922 q 0,-0.375 -0.134765,-0.621093 -0.128906,-0.246094 -0.375,-0.386719 -0.234375,-0.134766 -0.5625,-0.181641 -0.328125,-0.04687 -0.685547,-0.04687 -0.433594,0 -0.966797,0.117188 -0.533203,0.111328 -1.101562,0.328125 h -0.05859 v -1.119141 q 0.322265,-0.08789 0.93164,-0.193359 0.609375,-0.105469 1.201172,-0.105469 0.691407,0 1.201172,0.117188 0.515625,0.111328 0.890625,0.386718 0.369141,0.269532 0.5625,0.697266 0.19336,0.427734 0.19336,1.060547 z m -1.095704,-1.611328 v -1.822266 q -0.503906,0.0293 -1.189453,0.08789 -0.679687,0.05859 -1.078125,0.169922 -0.474609,0.134765 -0.767578,0.421875 -0.292969,0.28125 -0.292969,0.779297 0,0.5625 0.339844,0.849609 0.339844,0.28125 1.03711,0.28125 0.580078,0 1.060546,-0.222656 0.480469,-0.228516 0.890625,-0.544921 z"
         id="path200" /><path
         d="m 30.736328,28.785854 q 0,1.664063 -0.755859,2.44336 -0.75586,0.779297 -2.326172,0.779297 -0.521485,0 -1.019531,-0.07617 -0.492188,-0.07031 -0.972657,-0.205078 v -1.125 h 0.05859 q 0.269531,0.105468 0.855469,0.257812 0.585937,0.158203 1.171875,0.158203 0.5625,0 0.93164,-0.134765 0.369141,-0.134766 0.574219,-0.375 0.205078,-0.228516 0.292969,-0.550782 0.08789,-0.322265 0.08789,-0.720703 V 28.63937 q -0.498047,0.398438 -0.955079,0.597656 -0.451171,0.19336 -1.154296,0.19336 -1.171875,0 -1.863282,-0.84375 -0.685547,-0.84961 -0.685547,-2.390625 0,-0.84375 0.234375,-1.453125 0.240235,-0.615235 0.650391,-1.060547 0.380859,-0.416016 0.925781,-0.644531 0.544922,-0.234375 1.083985,-0.234375 0.568359,0 0.949218,0.117187 0.386719,0.111328 0.814454,0.345703 l 0.07031,-0.28125 h 1.03125 z m -1.101562,-1.054687 v -3.568359 q -0.439454,-0.199219 -0.820313,-0.28125 -0.375,-0.08789 -0.75,-0.08789 -0.908203,0 -1.429687,0.609375 -0.521485,0.609375 -0.521485,1.769531 0,1.101563 0.386719,1.669922 0.386719,0.568359 1.283203,0.568359 0.480469,0 0.960938,-0.18164 0.486328,-0.1875 0.890625,-0.498048 z"
         id="path202" /><path
         d="m 40.679687,22.551479 q 0,-0.55664 -0.333984,-0.873046 -0.328125,-0.322266 -0.84375,-0.322266 -0.539062,0 -0.878906,0.363281 -0.339844,0.357422 -0.339844,0.878906 0,0.439454 0.228516,0.779297 0.234375,0.339844 1.001953,0.802735 0.574219,-0.205078 0.867187,-0.597657 0.298828,-0.398437 0.298828,-1.03125 z m 1.136719,5.132813 -2.800781,-2.730469 q -0.181641,0.08789 -0.363281,0.234375 -0.181641,0.140625 -0.363282,0.386719 -0.164062,0.228516 -0.269531,0.550781 -0.105469,0.322266 -0.105469,0.726563 0,0.855468 0.498047,1.382812 0.503907,0.521485 1.423828,0.521485 0.544922,0 1.078125,-0.263672 0.539063,-0.269532 0.902344,-0.808594 z m 1.763672,-3.480469 v 0.5625 q 0,0.5625 -0.146484,1.265625 -0.146485,0.703125 -0.498047,1.341797 l 2.214844,2.15625 h -1.441407 l -1.341797,-1.3125 q -0.673828,0.832031 -1.376953,1.166016 -0.703125,0.328125 -1.447265,0.328125 -1.21875,0 -2.027344,-0.708985 -0.802734,-0.714843 -0.802734,-1.86914 0,-0.539063 0.152343,-0.931641 0.152344,-0.392578 0.357422,-0.679687 0.205078,-0.275391 0.509766,-0.515625 0.304687,-0.246094 0.615234,-0.427735 -0.644531,-0.421875 -0.93164,-0.849609 -0.28125,-0.427735 -0.28125,-1.078125 0,-0.392578 0.152343,-0.744141 0.158203,-0.357422 0.46875,-0.65039 0.292969,-0.28125 0.761719,-0.457032 0.474609,-0.175781 1.042969,-0.175781 1.013672,0 1.640625,0.515625 0.626953,0.509766 0.626953,1.294922 0,0.257812 -0.07031,0.585937 -0.07031,0.322266 -0.240234,0.580079 -0.1875,0.287109 -0.533203,0.550781 -0.345703,0.263672 -0.896484,0.451172 l 2.173828,2.121093 q 0.08203,-0.234375 0.123047,-0.515625 0.04102,-0.28125 0.04687,-0.585937 0.01172,-0.328125 0.0059,-0.732422 0,-0.404297 0,-0.685547 z"
         id="path204" /><path
         d="m 11.224609,42.643276 q 0,0.896485 -0.74414,1.470703 -0.7382815,0.574219 -2.0214846,0.574219 -0.7265625,0 -1.3359375,-0.169922 Q 6.5195312,44.342495 6.109375,44.137417 v -1.236328 h 0.058594 q 0.5214844,0.392578 1.1601563,0.626953 0.6386719,0.228516 1.2246094,0.228516 0.7265625,0 1.1367187,-0.234375 0.4101556,-0.234375 0.4101556,-0.738282 0,-0.386718 -0.2226556,-0.585937 Q 9.6542969,41.998745 9.0214844,41.85812 8.7871094,41.805386 8.40625,41.735073 8.03125,41.664761 7.7207031,41.582729 6.859375,41.354214 6.4960937,40.914761 6.1386719,40.469448 6.1386719,39.824917 q 0,-0.404297 0.1640625,-0.761719 Q 6.4726562,38.705776 6.8125,38.424526 7.140625,38.149136 7.6445312,37.990933 8.1542969,37.82687 8.78125,37.82687 q 0.5859375,0 1.1835938,0.146484 0.6035152,0.140625 1.0019532,0.345704 v 1.177734 h -0.05859 Q 10.486328,39.186245 9.8828125,38.975308 9.2792969,38.758511 8.6992188,38.758511 q -0.6035157,0 -1.0195313,0.234375 -0.4160156,0.228515 -0.4160156,0.685547 0,0.404296 0.2519531,0.609375 0.2460937,0.205078 0.796875,0.333984 0.3046875,0.07031 0.6796875,0.140625 0.3808594,0.07031 0.6328125,0.128906 0.767578,0.175781 1.183594,0.603516 0.416015,0.433594 0.416015,1.148437 z"
         id="path206" /><path
         d="m 13.984375,36.88937 h -1.242187 v -1.142578 h 1.242187 z m -0.07031,7.640625 H 12.8125 v -6.544922 h 1.101563 z"
         id="path208" /><path
         d="m 21.402344,43.785854 q 0,1.664063 -0.75586,2.44336 -0.755859,0.779297 -2.326172,0.779297 -0.521484,0 -1.019531,-0.07617 -0.492187,-0.07031 -0.972656,-0.205078 v -1.125 h 0.05859 q 0.269531,0.105468 0.855468,0.257812 0.585938,0.158203 1.171875,0.158203 0.5625,0 0.931641,-0.134765 0.369141,-0.134766 0.574219,-0.375 0.205078,-0.228516 0.292969,-0.550782 0.08789,-0.322265 0.08789,-0.720703 V 43.63937 q -0.498047,0.398438 -0.955078,0.597656 -0.451172,0.19336 -1.154297,0.19336 -1.171875,0 -1.863281,-0.84375 -0.685547,-0.84961 -0.685547,-2.390625 0,-0.84375 0.234375,-1.453125 0.240234,-0.615235 0.650391,-1.060547 0.380859,-0.416016 0.925781,-0.644531 0.544922,-0.234375 1.083984,-0.234375 0.56836,0 0.949219,0.117187 0.386719,0.111328 0.814453,0.345703 l 0.07031,-0.28125 h 1.03125 z m -1.101563,-1.054687 v -3.568359 q -0.439453,-0.199219 -0.820312,-0.28125 -0.375,-0.08789 -0.75,-0.08789 -0.908203,0 -1.429688,0.609375 -0.521484,0.609375 -0.521484,1.769531 0,1.101563 0.386719,1.669922 0.386718,0.568359 1.283203,0.568359 0.480468,0 0.960937,-0.18164 0.486328,-0.1875 0.890625,-0.498048 z"
         id="path210" /><path
         d="m 29.042969,44.529995 h -1.101563 v -3.726562 q 0,-0.451172 -0.05273,-0.84375 -0.05273,-0.398438 -0.19336,-0.621094 -0.146484,-0.246094 -0.421875,-0.363281 -0.27539,-0.123047 -0.714843,-0.123047 -0.451172,0 -0.94336,0.222656 -0.492187,0.222656 -0.943359,0.568359 v 4.886719 h -1.101563 v -6.544922 h 1.101563 v 0.726563 q 0.515625,-0.427735 1.066406,-0.667969 0.550781,-0.240234 1.13086,-0.240234 1.060546,0 1.617187,0.638671 0.556641,0.638672 0.556641,1.839844 z"
         id="path212" /></g><rect
       style="fill:#1a1a1a;stroke-width:0.264583"
       id="rect230"
       width="10.26631"
       height="10.410906"
       x="2.6027265"
       y="32.244888" /><rect
       style="fill:#1a1a1a;stroke-width:0.264583"
       id="rect288"
       width="10.26631"
       height="10.410906"
       x="2.3135347"
       y="48.222736" /><rect
       style="fill:#1a1a1a;stroke-width:0.264583"
       id="rect290"
       width="10.26631"
       height="10.410906"
       x="2.5304286"
       y="108.23004" /></g><g
     inkscape:groupmode="layer"
     id="layer2"
     inkscape:label="components"
     style="display:none"><circle
       style="fill:#00ff00;stroke-width:0.267857"
       id="path430"
       cx="7.6199999"
       cy="21.508276"
       r="3"
       inkscape:label="bipolar" /><circle
       style="fill:#0000ff;stroke-width:0.264583"
       id="path432"
       cx="7.6199999"
       cy="37.504154"
       r="3"
       inkscape:label="magnitude" /><circle
       style="fill:#0000ff;stroke-width:0.264583"
       id="circle204"
       cx="7.6199999"
       cy="53.500034"
       r="3"
       inkscape:label="sign" /><circle
       style="fill:#00ff00;stroke-width:0.267857"
       id="circle206"
       cx="7.6199999"
       cy="81.371536"
       r="3"
       inkscape:label="magnitude" /><circle
       style="fill:#00ff00;stroke-width:0.267857"
       id="circle208"
       cx="7.6199999"
       cy="97.367416"
       r="3"
       inkscape:label="sign" /><circle
       style="fill:#0000ff;stroke-width:0.264583"
       id="circle210"
       cx="7.6199999"
       cy="113.3633"
       r="3"
       inkscape:label="bipolar" /></g></svg>
