<?xml version="1.0" encoding="UTF-8" standalone="no"?>
<!-- Created with Inkscape (http://www.inkscape.org/) -->

<svg
   width="15.24mm"
   height="128.5mm"
   viewBox="0 0 15.239999 128.5"
   version="1.1"
   id="svg5"
   inkscape:version="1.2.2 (b0a84865, 2022-12-01)"
   sodipodi:docname="PolyShuffle.svg"
   xml:space="preserve"
   xmlns:inkscape="http://www.inkscape.org/namespaces/inkscape"
   xmlns:sodipodi="http://sodipodi.sourceforge.net/DTD/sodipodi-0.dtd"
   xmlns="http://www.w3.org/2000/svg"
   xmlns:svg="http://www.w3.org/2000/svg"><sodipodi:namedview
     id="namedview7"
     pagecolor="#ffffff"
     bordercolor="#000000"
     borderopacity="0.25"
     inkscape:showpageshadow="2"
     inkscape:pageopacity="0.0"
     inkscape:pagecheckerboard="false"
     inkscape:deskcolor="#d1d1d1"
     inkscape:document-units="mm"
     showgrid="false"
     inkscape:zoom="1.2938725"
     inkscape:cx="-79.219552"
     inkscape:cy="249.25176"
     inkscape:window-width="1390"
     inkscape:window-height="847"
     inkscape:window-x="2122"
     inkscape:window-y="293"
     inkscape:window-maximized="0"
     inkscape:current-layer="layer2" /><defs
     id="defs2"><rect
       x="5.4650423"
       y="18.581144"
       width="50.278389"
       height="37.162288"
       id="rect514" /></defs><g
     inkscape:label="panel"
     inkscape:groupmode="layer"
     id="layer1"><rect
       style="fill:#cccccc;stroke-width:0.264583"
       id="rect215"
       width="15.24"
       height="128.5"
       x="-6.8484404e-08"
       y="2.9483116e-08"
       inkscape:label="background" /><rect
       style="fill:#1a1a1a;stroke-width:0.264583"
       id="rect230"
       width="10.26631"
       height="10.410906"
       x="2.486845"
       y="72.992111" /><g
       aria-label="Poly
Shuffle"
       id="text240"
       style="font-size:3.175px;display:inline;stroke-width:0.264583"><path
         d="m 3.8217822,12.908 q 0,0.153479 -0.05426,0.285254 -0.05271,0.130224 -0.1488281,0.226342 -0.1193726,0.119373 -0.2821534,0.179834 -0.1627807,0.05891 -0.4108276,0.05891 h -0.306958 v 0.860413 h -0.306958 v -2.308386 h 0.6263183 q 0.2077393,0 0.3519165,0.03566 0.1441773,0.03411 0.2557984,0.10852 0.1317749,0.08837 0.2030884,0.220142 0.072864,0.131775 0.072864,0.333313 z m -0.3193603,0.0078 q 0,-0.119372 -0.041858,-0.207739 -0.041858,-0.08837 -0.127124,-0.144177 -0.074414,-0.04806 -0.1705323,-0.06821 -0.094568,-0.0217 -0.2402954,-0.0217 H 2.6187549 v 0.922424 h 0.2588989 q 0.1860352,0 0.3023071,-0.03256 0.116272,-0.03411 0.1891358,-0.10697 0.072864,-0.07442 0.1023193,-0.15658 0.031006,-0.08217 0.031006,-0.184485 z"
         id="path330" /><path
         d="m 5.6015186,13.653691 q 0,0.42323 -0.2170411,0.668176 -0.217041,0.244946 -0.5813598,0.244946 -0.3674194,0 -0.5844605,-0.244946 -0.2154907,-0.244946 -0.2154907,-0.668176 0,-0.42323 0.2154907,-0.668177 0.2170411,-0.246496 0.5844605,-0.246496 0.3643188,0 0.5813598,0.246496 0.2170411,0.244947 0.2170411,0.668177 z m -0.3007569,0 q 0,-0.336414 -0.1317749,-0.499195 -0.1317749,-0.164331 -0.3658691,-0.164331 -0.2371948,0 -0.3689697,0.164331 -0.1302246,0.162781 -0.1302246,0.499195 0,0.325561 0.1317749,0.494543 0.1317749,0.167432 0.3674194,0.167432 0.2325439,0 0.3643188,-0.165882 0.1333252,-0.167431 0.1333252,-0.496093 z"
         id="path332" /><path
         d="m 6.3472094,14.518754 h -0.291455 v -2.412256 h 0.291455 z"
         id="path334" /><path
         d="m 8.4215015,12.787077 -1.010791,2.370398 H 7.0991016 L 7.4215625,14.435038 6.7316822,12.787077 h 0.3162597 l 0.5317505,1.283642 0.5364014,-1.283642 z"
         id="path336" /><path
         d="m 3.9892139,17.828629 q 0,0.134876 -0.063562,0.266651 -0.062012,0.131775 -0.1751831,0.223242 -0.1240235,0.09922 -0.2899048,0.155029 -0.1643311,0.05581 -0.396875,0.05581 -0.2495972,0 -0.449585,-0.04651 -0.1984375,-0.04651 -0.4046264,-0.137976 v -0.384473 h 0.021704 q 0.1751831,0.145728 0.4046264,0.224793 0.2294434,0.07906 0.4309815,0.07906 0.2852539,0 0.4433837,-0.10697 0.1596802,-0.106971 0.1596802,-0.285254 0,-0.153479 -0.075964,-0.226343 -0.074414,-0.07286 -0.2278931,-0.113172 -0.116272,-0.03101 -0.2526977,-0.05116 -0.1348755,-0.02015 -0.2868042,-0.05116 -0.306958,-0.06511 -0.4557862,-0.221692 -0.1472778,-0.15813 -0.1472778,-0.410827 0,-0.289905 0.2449463,-0.47439 0.2449463,-0.186035 0.6216675,-0.186035 0.243396,0 0.4464843,0.04651 0.2030884,0.04651 0.359668,0.114721 v 0.362769 H 3.8744922 Q 3.7427173,16.549638 3.5272266,16.476774 3.3132861,16.40236 3.0884937,16.40236 q -0.2464966,0 -0.396875,0.102319 -0.1488282,0.10232 -0.1488282,0.26355 0,0.144177 0.074414,0.226343 0.074414,0.08216 0.2619995,0.125574 0.099219,0.0217 0.2821533,0.05271 0.1829346,0.03101 0.3100586,0.06356 0.2573487,0.06821 0.3875733,0.206189 0.1302246,0.137976 0.1302246,0.386022 z"
         id="path338" /><path
         d="M 5.9069263,18.487504 H 5.6154712 v -0.985986 q 0,-0.119373 -0.013953,-0.223243 -0.013953,-0.105419 -0.05116,-0.164331 -0.038757,-0.06511 -0.1116211,-0.09612 -0.072864,-0.03256 -0.1891357,-0.03256 -0.1193726,0 -0.2495972,0.05891 -0.1302246,0.05891 -0.2495972,0.150379 v 1.292944 h -0.291455 v -2.412256 h 0.291455 v 0.872815 q 0.1364258,-0.113171 0.2821534,-0.176733 0.1457275,-0.06356 0.2992065,-0.06356 0.280603,0 0.4278808,0.168982 0.1472779,0.168982 0.1472779,0.486792 z"
         id="path340" /><path
         d="M 7.9037035,18.487504 H 7.6122484 v -0.192236 q -0.1472778,0.116272 -0.2821533,0.178283 -0.1348755,0.06201 -0.2976562,0.06201 -0.2728516,0 -0.4247803,-0.165881 Q 6.4557299,18.20225 6.4557299,17.879789 V 16.755827 H 6.747185 v 0.985986 q 0,0.131775 0.012402,0.226343 0.012402,0.09302 0.05271,0.15968 0.041858,0.06821 0.1085205,0.09922 0.066663,0.03101 0.1937866,0.03101 0.1131714,0 0.2464966,-0.05891 0.1348755,-0.05891 0.2511474,-0.150378 v -1.292944 h 0.2914551 z"
         id="path342" /><path
         d="M 9.4090379,16.357401 H 9.393535 q -0.048059,-0.01395 -0.1255738,-0.02791 -0.077515,-0.0155 -0.1364257,-0.0155 -0.1875855,0 -0.2728516,0.08372 -0.083716,0.08217 -0.083716,0.299207 v 0.05891 h 0.5255493 v 0.244946 H 8.7842698 v 1.486731 H 8.4928148 V 17.000773 H 8.2959276 v -0.244946 h 0.1968872 v -0.05736 q 0,-0.308508 0.153479,-0.472839 0.153479,-0.165882 0.4433838,-0.165882 0.097668,0 0.1751831,0.0093 0.079065,0.0093 0.1441772,0.0217 z"
         id="path344" /><path
         d="m 10.525249,16.357401 h -0.0155 q -0.04806,-0.01395 -0.125574,-0.02791 -0.07751,-0.0155 -0.136426,-0.0155 -0.187585,0 -0.2728512,0.08372 -0.083716,0.08217 -0.083716,0.299207 v 0.05891 h 0.525549 v 0.244946 H 9.9004808 v 1.486731 H 9.6090257 V 17.000773 H 9.4121385 v -0.244946 h 0.1968872 v -0.05736 q 0,-0.308508 0.153479,-0.472839 0.153479,-0.165882 0.4433833,-0.165882 0.09767,0 0.175184,0.0093 0.07906,0.0093 0.144177,0.0217 z"
         id="path346" /><path
         d="m 11.004289,18.487504 h -0.291455 v -2.412256 h 0.291455 z"
         id="path348" /><path
         d="m 13.030522,17.651896 h -1.275891 q 0,0.15968 0.04806,0.279053 0.04806,0.117822 0.131775,0.193786 0.08061,0.07441 0.190686,0.111621 0.111621,0.03721 0.244946,0.03721 0.176734,0 0.355017,-0.06976 0.179834,-0.07131 0.255799,-0.139526 h 0.0155 v 0.31781 q -0.147278,0.06201 -0.300757,0.10387 -0.153479,0.04186 -0.322461,0.04186 -0.430982,0 -0.672827,-0.232544 -0.241846,-0.234095 -0.241846,-0.663526 0,-0.42478 0.230994,-0.674377 0.232544,-0.249597 0.610815,-0.249597 0.350366,0 0.539502,0.204638 0.190686,0.204639 0.190686,0.58136 z m -0.283704,-0.223242 q -0.0015,-0.229443 -0.116271,-0.355017 -0.113172,-0.125574 -0.345716,-0.125574 -0.234094,0 -0.37362,0.137976 -0.137976,0.137976 -0.15658,0.342615 z"
         id="path350" /></g><g
       aria-label="Poly in"
       id="text246"
       style="font-size:3.175px;display:inline;stroke-width:0.264583"><path
         d="m 4.1667224,32.743482 q 0,0.153479 -0.05426,0.285254 -0.05271,0.130225 -0.1488282,0.226343 -0.1193725,0.119372 -0.2821533,0.179834 -0.1627807,0.05891 -0.4108276,0.05891 h -0.306958 v 0.860413 H 2.6567371 V 32.04585 h 0.6263183 q 0.2077393,0 0.3519165,0.03566 0.1441773,0.03411 0.2557984,0.108521 0.1317749,0.08837 0.2030883,0.220141 0.072864,0.131775 0.072864,0.333313 z m -0.3193603,0.0078 q 0,-0.119373 -0.041858,-0.20774 -0.041858,-0.08837 -0.1271241,-0.144177 -0.074414,-0.04806 -0.1705322,-0.06821 Q 3.41328,32.3094 3.2675525,32.3094 H 2.9636951 v 0.922425 H 3.222594 q 0.1860352,0 0.3023071,-0.03256 0.116272,-0.03411 0.1891358,-0.10697 0.072864,-0.07441 0.1023193,-0.156579 0.031006,-0.08217 0.031006,-0.184485 z"
         id="path353" /><path
         d="m 5.9464587,33.489173 q 0,0.42323 -0.217041,0.668176 -0.217041,0.244947 -0.5813598,0.244947 -0.3674195,0 -0.5844605,-0.244947 -0.2154907,-0.244946 -0.2154907,-0.668176 0,-0.42323 0.2154907,-0.668176 0.217041,-0.246497 0.5844605,-0.246497 0.3643188,0 0.5813598,0.246497 0.217041,0.244946 0.217041,0.668176 z m -0.3007568,0 q 0,-0.336413 -0.1317749,-0.499194 -0.1317749,-0.164331 -0.3658691,-0.164331 -0.2371948,0 -0.3689697,0.164331 -0.1302247,0.162781 -0.1302247,0.499194 0,0.325562 0.1317749,0.494544 0.1317749,0.167431 0.3674195,0.167431 0.2325439,0 0.3643188,-0.165881 0.1333252,-0.167432 0.1333252,-0.496094 z"
         id="path355" /><path
         d="m 6.6921496,34.354237 h -0.291455 v -2.412256 h 0.291455 z"
         id="path357" /><path
         d="m 8.7664417,32.622559 -1.010791,2.370398 H 7.4440418 L 7.7665027,34.270521 7.0766223,32.622559 h 0.3162598 l 0.5317505,1.283643 0.5364013,-1.283643 z"
         id="path359" /><path
         d="m 10.577184,32.332655 h -0.328662 v -0.302308 h 0.328662 z m -0.0186,2.021582 h -0.291455 v -1.731678 h 0.291455 z"
         id="path361" /><path
         d="M 12.583263,34.354237 H 12.291807 V 33.36825 q 0,-0.119372 -0.01395,-0.223242 -0.01395,-0.10542 -0.05116,-0.164331 -0.03876,-0.06511 -0.111621,-0.09612 -0.07286,-0.03256 -0.189136,-0.03256 -0.119372,0 -0.249597,0.05891 -0.130224,0.05891 -0.249597,0.150378 v 1.292945 h -0.291455 v -1.731678 h 0.291455 v 0.192237 q 0.136426,-0.113172 0.282153,-0.176734 0.145728,-0.06356 0.299207,-0.06356 0.280603,0 0.427881,0.168982 0.147278,0.168982 0.147278,0.486792 z"
         id="path363" /></g><g
       aria-label="Poly out"
       id="text308"
       style="font-size:3.175px;display:inline;stroke-width:0.264583"><path
         d="m 2.9086598,69.551592 q 0,0.153479 -0.05426,0.285253 -0.05271,0.130225 -0.1488282,0.226343 -0.1193725,0.119373 -0.2821533,0.179834 -0.1627807,0.05891 -0.4108276,0.05891 h -0.306958 v 0.860413 H 1.3986745 V 68.85396 h 0.6263183 q 0.2077393,0 0.3519165,0.03566 0.1441773,0.03411 0.2557984,0.108521 0.1317749,0.08837 0.2030883,0.220142 0.072864,0.131774 0.072864,0.333313 z m -0.3193603,0.0078 q 0,-0.119373 -0.041858,-0.207739 -0.041858,-0.08837 -0.1271241,-0.144178 -0.074414,-0.04806 -0.1705322,-0.06821 -0.094568,-0.0217 -0.2402954,-0.0217 H 1.7056325 v 0.922425 h 0.2588989 q 0.1860352,0 0.3023071,-0.03256 0.116272,-0.03411 0.1891358,-0.106971 0.072864,-0.07441 0.1023193,-0.156579 0.031006,-0.08217 0.031006,-0.184485 z"
         id="path395" /><path
         d="m 4.6883961,70.297282 q 0,0.42323 -0.217041,0.668177 -0.217041,0.244946 -0.5813598,0.244946 -0.3674195,0 -0.5844605,-0.244946 -0.2154907,-0.244947 -0.2154907,-0.668177 0,-0.42323 0.2154907,-0.668176 0.217041,-0.246496 0.5844605,-0.246496 0.3643188,0 0.5813598,0.246496 0.217041,0.244946 0.217041,0.668176 z m -0.3007568,0 q 0,-0.336413 -0.1317749,-0.499194 -0.1317749,-0.164331 -0.3658691,-0.164331 -0.2371948,0 -0.3689697,0.164331 -0.1302247,0.162781 -0.1302247,0.499194 0,0.325562 0.1317749,0.494544 0.1317749,0.167432 0.3674195,0.167432 0.2325439,0 0.3643188,-0.165882 0.1333252,-0.167431 0.1333252,-0.496094 z"
         id="path397" /><path
         d="M 5.434087,71.162346 H 5.142632 V 68.75009 h 0.291455 z"
         id="path399" /><path
         d="m 7.5083791,69.430669 -1.010791,2.370398 H 6.1859792 L 6.5084401,71.07863 5.8185597,69.430669 H 6.1348195 L 6.66657,70.714311 7.2029713,69.430669 Z"
         id="path401" /><path
         d="m 10.481841,70.297282 q 0,0.42323 -0.217041,0.668177 -0.217041,0.244946 -0.5813601,0.244946 -0.3674194,0 -0.5844604,-0.244946 -0.2154908,-0.244947 -0.2154908,-0.668177 0,-0.42323 0.2154908,-0.668176 0.217041,-0.246496 0.5844604,-0.246496 0.3643191,0 0.5813601,0.246496 0.217041,0.244946 0.217041,0.668176 z m -0.300757,0 q 0,-0.336413 -0.131775,-0.499194 -0.1317749,-0.164331 -0.3658691,-0.164331 -0.2371948,0 -0.3689697,0.164331 -0.1302246,0.162781 -0.1302246,0.499194 0,0.325562 0.1317749,0.494544 0.1317749,0.167432 0.3674194,0.167432 0.2325439,0 0.3643191,-0.165882 0.133325,-0.167431 0.133325,-0.496094 z"
         id="path403" /><path
         d="M 12.368548,71.162346 H 12.077092 V 70.97011 q -0.147277,0.116272 -0.282153,0.178283 -0.134875,0.06201 -0.297656,0.06201 -0.272852,0 -0.42478,-0.165881 -0.151929,-0.167432 -0.151929,-0.489893 v -1.123962 h 0.291455 v 0.985986 q 0,0.131775 0.0124,0.226343 0.0124,0.09302 0.05271,0.15968 0.04186,0.06821 0.108521,0.09922 0.06666,0.03101 0.193786,0.03101 0.113172,0 0.246497,-0.05891 0.134875,-0.05891 0.251147,-0.150378 v -1.292944 h 0.291456 z"
         id="path405" /><path
         d="m 13.841325,71.146843 q -0.08216,0.0217 -0.179834,0.03566 -0.09612,0.01395 -0.172082,0.01395 -0.2651,0 -0.403076,-0.142627 -0.137976,-0.142627 -0.137976,-0.457336 v -0.920874 h -0.196888 v -0.244946 h 0.196888 v -0.497644 h 0.291455 v 0.497644 h 0.601513 v 0.244946 h -0.601513 v 0.789099 q 0,0.136426 0.0062,0.21394 0.0062,0.07597 0.04341,0.142627 0.03411,0.06201 0.09302,0.09147 0.06046,0.0279 0.182934,0.0279 0.07131,0 0.148828,-0.02015 0.07752,-0.0217 0.111621,-0.03566 h 0.0155 z"
         id="path407" /></g><g
       aria-label="Shuffle
trigger"
       id="text312"
       style="font-size:3.175px;display:inline;stroke-width:0.264583"><path
         d="m 4.0450246,49.441048 q 0,0.134875 -0.063562,0.26665 -0.062012,0.131775 -0.1751831,0.223242 -0.1240234,0.09922 -0.2899047,0.15503 -0.1643311,0.05581 -0.396875,0.05581 -0.2495972,0 -0.449585,-0.04651 -0.1984375,-0.04651 -0.4046264,-0.137976 v -0.384472 h 0.021704 q 0.1751831,0.145727 0.4046264,0.224792 0.2294434,0.07906 0.4309815,0.07906 0.2852539,0 0.4433837,-0.10697 0.1596802,-0.10697 0.1596802,-0.285254 0,-0.153479 -0.075964,-0.226343 -0.074414,-0.07286 -0.2278931,-0.113171 -0.116272,-0.03101 -0.2526978,-0.05116 -0.1348754,-0.02015 -0.2868042,-0.05116 -0.306958,-0.06511 -0.4557861,-0.221691 -0.1472778,-0.15813 -0.1472778,-0.410828 0,-0.289905 0.2449463,-0.47439 0.2449463,-0.186035 0.6216674,-0.186035 0.243396,0 0.4464844,0.04651 0.2030884,0.04651 0.359668,0.114722 v 0.362768 H 3.9303029 Q 3.798528,48.162056 3.5830373,48.089192 q -0.2139405,-0.07441 -0.4387329,-0.07441 -0.2464966,0 -0.396875,0.10232 -0.1488282,0.102319 -0.1488282,0.263549 0,0.144178 0.074414,0.226343 0.074414,0.08217 0.2619995,0.125574 0.099219,0.0217 0.2821533,0.05271 0.1829346,0.03101 0.3100586,0.06356 0.2573486,0.06821 0.3875732,0.206189 0.1302247,0.137976 0.1302247,0.386023 z"
         id="path366" /><path
         d="M 5.962737,50.099922 H 5.6712819 v -0.985986 q 0,-0.119373 -0.013953,-0.223242 -0.013953,-0.10542 -0.05116,-0.164331 -0.038757,-0.06511 -0.1116211,-0.09612 -0.072864,-0.03256 -0.1891357,-0.03256 -0.1193726,0 -0.2495972,0.05891 -0.1302246,0.05891 -0.2495972,0.150379 v 1.292944 h -0.291455 v -2.412256 h 0.291455 v 0.872815 q 0.1364258,-0.113171 0.2821533,-0.176733 0.1457276,-0.06356 0.2992066,-0.06356 0.280603,0 0.4278808,0.168982 0.1472779,0.168982 0.1472779,0.486792 z"
         id="path368" /><path
         d="M 7.9595142,50.099922 H 7.6680591 v -0.192236 q -0.1472778,0.116272 -0.2821533,0.178284 -0.1348755,0.06201 -0.2976562,0.06201 -0.2728516,0 -0.4247803,-0.165881 -0.1519287,-0.167432 -0.1519287,-0.489893 v -1.123962 h 0.2914551 v 0.985986 q 0,0.131775 0.012402,0.226343 0.012402,0.09302 0.05271,0.15968 0.041858,0.06821 0.1085205,0.09922 0.066663,0.03101 0.1937866,0.03101 0.1131714,0 0.2464966,-0.05891 0.1348755,-0.05891 0.2511474,-0.150379 v -1.292944 h 0.2914551 z"
         id="path370" /><path
         d="m 9.4648486,47.96982 h -0.015503 q -0.048059,-0.01395 -0.1255738,-0.02791 -0.077515,-0.0155 -0.1364257,-0.0155 -0.1875855,0 -0.2728516,0.08372 -0.083716,0.08217 -0.083716,0.299207 v 0.05891 h 0.5255493 v 0.244946 H 8.8400805 v 1.486731 H 8.5486255 V 48.613191 H 8.3517383 v -0.244946 h 0.1968872 v -0.05736 q 0,-0.308508 0.153479,-0.472839 0.153479,-0.165882 0.4433837,-0.165882 0.097668,0 0.1751832,0.0093 0.079065,0.0093 0.1441772,0.0217 z"
         id="path372" /><path
         d="m 10.58106,47.96982 h -0.0155 q -0.04806,-0.01395 -0.125574,-0.02791 -0.07752,-0.0155 -0.136426,-0.0155 -0.187585,0 -0.272851,0.08372 -0.083716,0.08217 -0.083716,0.299207 v 0.05891 h 0.5255493 v 0.244946 H 9.9562915 v 1.486731 H 9.6648364 V 48.613191 H 9.4679492 v -0.244946 h 0.1968872 v -0.05736 q 0,-0.308508 0.153479,-0.472839 0.153479,-0.165882 0.4433836,-0.165882 0.09767,0 0.175183,0.0093 0.07906,0.0093 0.144178,0.0217 z"
         id="path374" /><path
         d="M 11.0601,50.099922 H 10.768645 V 47.687666 H 11.0601 Z"
         id="path376" /><path
         d="m 13.086333,49.264314 h -1.275891 q 0,0.15968 0.04806,0.279053 0.04806,0.117822 0.131775,0.193787 0.08061,0.07441 0.190686,0.111621 0.111621,0.03721 0.244946,0.03721 0.176733,0 0.355017,-0.06976 0.179834,-0.07131 0.255798,-0.139527 h 0.0155 v 0.31781 q -0.147278,0.06201 -0.300757,0.10387 -0.153479,0.04186 -0.32246,0.04186 -0.430982,0 -0.672828,-0.232544 -0.241845,-0.234094 -0.241845,-0.663526 0,-0.42478 0.230993,-0.674377 0.232544,-0.249597 0.610816,-0.249597 0.350366,0 0.539502,0.204639 0.190686,0.204638 0.190686,0.581359 z m -0.283704,-0.223242 q -0.0015,-0.229443 -0.116272,-0.355017 -0.113171,-0.125574 -0.345715,-0.125574 -0.234094,0 -0.373621,0.137976 -0.137976,0.137976 -0.156579,0.342615 z"
         id="path378" /><path
         d="m 3.2435231,54.053169 q -0.082165,0.0217 -0.179834,0.03566 -0.096118,0.01395 -0.1720825,0.01395 -0.2651001,0 -0.4030762,-0.142627 -0.137976,-0.142627 -0.137976,-0.457337 V 52.581941 H 2.1536672 v -0.244946 h 0.1968872 v -0.497644 h 0.291455 v 0.497644 h 0.6015137 v 0.244946 H 2.6420094 v 0.789099 q 0,0.136426 0.0062,0.213941 0.0062,0.07596 0.043408,0.142627 0.034107,0.06201 0.093018,0.09147 0.060461,0.02791 0.1829346,0.02791 0.071313,0 0.1488281,-0.02015 0.077515,-0.0217 0.1116211,-0.03566 h 0.015503 z"
         id="path380" /><path
         d="m 4.6759937,52.654805 h -0.015503 q -0.065112,-0.0155 -0.127124,-0.0217 -0.060461,-0.0078 -0.1441773,-0.0078 -0.1348754,0 -0.2604492,0.06046 -0.1255737,0.05891 -0.2418457,0.153479 v 1.229382 H 3.5954395 v -1.731677 h 0.2914551 v 0.255798 q 0.1736328,-0.139526 0.3054077,-0.196887 0.1333252,-0.05891 0.2713013,-0.05891 0.075964,0 0.1100708,0.0047 0.034106,0.0031 0.1023193,0.01395 z"
         id="path382" /><path
         d="M 5.2635548,52.04709 H 4.9348927 v -0.302307 h 0.3286621 z m -0.018604,2.021582 h -0.291455 v -1.731677 h 0.291455 z"
         id="path384" /><path
         d="m 7.2262257,53.871785 q 0,0.440283 -0.1999878,0.646472 -0.1999878,0.206189 -0.6154663,0.206189 -0.1379761,0 -0.269751,-0.02015 -0.1302246,-0.0186 -0.2573486,-0.05426 v -0.297656 h 0.015503 q 0.071313,0.0279 0.2263428,0.06821 0.1550293,0.04186 0.3100586,0.04186 0.1488281,0 0.2464966,-0.03566 0.097668,-0.03566 0.1519287,-0.09922 0.05426,-0.06046 0.077515,-0.145727 0.023254,-0.08527 0.023254,-0.190687 v -0.158129 q -0.1317749,0.10542 -0.2526977,0.158129 -0.1193726,0.05116 -0.3054077,0.05116 -0.3100586,0 -0.4929932,-0.223242 -0.1813843,-0.224793 -0.1813843,-0.63252 0,-0.223242 0.062012,-0.384472 0.063562,-0.162781 0.1720826,-0.280603 0.100769,-0.110071 0.2449462,-0.170532 0.1441773,-0.06201 0.2868042,-0.06201 0.1503784,0 0.2511475,0.03101 0.1023193,0.02946 0.2154907,0.09147 l 0.018603,-0.07441 H 7.2262257 Z M 6.9347706,53.592732 v -0.944128 q -0.116272,-0.05271 -0.217041,-0.07441 -0.099219,-0.02325 -0.1984375,-0.02325 -0.2402954,0 -0.3782715,0.161231 -0.137976,0.16123 -0.137976,0.468188 0,0.291455 0.1023193,0.441834 0.1023193,0.150378 0.3395141,0.150378 0.1271241,0 0.2542481,-0.04806 0.1286743,-0.04961 0.2356445,-0.131775 z"
         id="path386" /><path
         d="m 9.2043997,53.871785 q 0,0.440283 -0.1999878,0.646472 -0.1999878,0.206189 -0.6154663,0.206189 -0.1379761,0 -0.269751,-0.02015 -0.1302246,-0.0186 -0.2573486,-0.05426 v -0.297656 h 0.015503 q 0.071313,0.0279 0.2263428,0.06821 0.1550293,0.04186 0.3100586,0.04186 0.1488281,0 0.2464965,-0.03566 0.097669,-0.03566 0.1519287,-0.09922 0.05426,-0.06046 0.077515,-0.145727 0.023254,-0.08527 0.023254,-0.190687 v -0.158129 q -0.1317749,0.10542 -0.2526978,0.158129 -0.1193725,0.05116 -0.3054077,0.05116 -0.3100586,0 -0.4929931,-0.223242 -0.1813843,-0.224793 -0.1813843,-0.63252 0,-0.223242 0.062012,-0.384472 0.063562,-0.162781 0.1720825,-0.280603 0.1007691,-0.110071 0.2449463,-0.170532 0.1441773,-0.06201 0.2868042,-0.06201 0.1503784,0 0.2511475,0.03101 0.1023193,0.02946 0.2154907,0.09147 l 0.018604,-0.07441 H 9.2043997 Z M 8.9129446,53.592732 v -0.944128 q -0.116272,-0.05271 -0.217041,-0.07441 -0.099219,-0.02325 -0.1984375,-0.02325 -0.2402954,0 -0.3782715,0.161231 -0.1379761,0.16123 -0.1379761,0.468188 0,0.291455 0.1023194,0.441834 0.1023193,0.150378 0.3395141,0.150378 0.127124,0 0.2542481,-0.04806 0.1286743,-0.04961 0.2356445,-0.131775 z"
         id="path388" /><path
         d="M 11.227532,53.233064 H 9.9516408 q 0,0.15968 0.048059,0.279053 0.048059,0.117822 0.1317751,0.193787 0.08061,0.07441 0.190686,0.111621 0.111621,0.03721 0.244946,0.03721 0.176733,0 0.355017,-0.06976 0.179834,-0.07131 0.255799,-0.139527 h 0.0155 v 0.31781 q -0.147277,0.06201 -0.300756,0.10387 -0.153479,0.04186 -0.322461,0.04186 -0.430982,0 -0.6728275,-0.232544 -0.2418457,-0.234094 -0.2418457,-0.663526 0,-0.42478 0.2309937,-0.674377 0.2325435,-0.249597 0.6108155,-0.249597 0.350366,0 0.539502,0.204638 0.190686,0.204639 0.190686,0.58136 z m -0.283704,-0.223242 q -0.0015,-0.229443 -0.116272,-0.355017 -0.113171,-0.125574 -0.345715,-0.125574 -0.234094,0 -0.373621,0.137976 -0.1379757,0.137976 -0.1565792,0.342615 z"
         id="path390" /><path
         d="m 12.74992,52.654805 h -0.0155 q -0.06511,-0.0155 -0.127124,-0.0217 -0.06046,-0.0078 -0.144178,-0.0078 -0.134875,0 -0.260449,0.06046 -0.125574,0.05891 -0.241846,0.153479 v 1.229382 h -0.291455 v -1.731677 h 0.291455 v 0.255798 q 0.173633,-0.139526 0.305408,-0.196887 0.133325,-0.05891 0.271301,-0.05891 0.07597,0 0.110071,0.0047 0.03411,0.0031 0.10232,0.01395 z"
         id="path392" /></g></g><g
     inkscape:groupmode="layer"
     id="layer2"
     inkscape:label="components"
     style="display:none"><circle
       style="fill:#0000ff;stroke-width:0.264583"
       id="path432"
       cx="7.6199999"
       cy="78.197563"
       r="3"
       inkscape:label="Output" /><circle
       style="fill:#00ff00;stroke-width:0.267857"
       id="circle206"
       cx="7.6199999"
       cy="59.361679"
       r="3"
       inkscape:label="Shuffle trigger" /><circle
       style="display:inline;fill:#00ff00;stroke-width:0.267857"
       id="path430"
       cx="7.6199999"
       cy="40.525799"
       r="3"
       inkscape:label="Input" /></g></svg>
